<svg xmlns="http://www.w3.org/2000/svg" width="206" height="54" viewBox="0 0 206 54"><defs><style>.a{fill:#fff;}.b{font-size:20px;font-family:Montserrat-Regular, Montserrat;}</style></defs><g transform="translate(-1782 -2393)"><rect class="a" width="206" height="54" rx="5" transform="translate(1782 2393)"/><g transform="translate(1806 2402)"><path d="M50.1,5.122A6.545,6.545,0,0,0,51.993,0,8.547,8.547,0,0,0,46.64,2.43a6.269,6.269,0,0,0-1.93,4.965A7.127,7.127,0,0,0,50.1,5.122ZM53.992,18.1a7.55,7.55,0,0,1,3.486-6.335,7.463,7.463,0,0,0-5.9-3.3c-2.516-.264-4.906,1.524-6.184,1.524S42.149,8.5,40.062,8.544a7.872,7.872,0,0,0-6.68,4.175c-2.85,5.094-.73,12.639,2.047,16.771,1.358,2.023,2.974,4.292,5.1,4.21,2.049-.082,2.821-1.363,5.293-1.363s3.166,1.363,5.329,1.322c2.2-.041,3.595-2.062,4.941-4.091a18.6,18.6,0,0,0,2.236-4.731A7.332,7.332,0,0,1,53.992,18.1Z" transform="translate(-35.029)"/></g><text class="b" transform="translate(1846 2427)"><tspan x="0" y="0">App Store</tspan></text></g></svg>