<svg xmlns="http://www.w3.org/2000/svg" width="106.764" height="44.649" viewBox="0 0 106.764 44.649"><defs><style>.a{fill:#265031;}.a,.b{fill-rule:evenodd;}.b{fill:#f2a133;}</style></defs><g transform="translate(-883.131 -46.124)"><path class="a" d="M247.059,266.524c0-4.888-.006-9.775.012-14.664,0-.382-.277-1.054.429-1.047.522.005,1.365-.537,1.542.57.089.556.39.176.61.091,2.756-1.065,5.39-1.221,7.674,1.067.307.308.434.136.661-.1,2.046-2.1,4.519-2.034,7.012-1.168,1.781.618,2.536,2.2,2.856,3.969a11.089,11.089,0,0,1,.164,1.943c.011,8.024,0,16.048.02,24.073,0,.8-.042,1.294-1.077,1.225-.737-.05-.85-.309-.845-.948.027-2.932.012-5.865.012-8.8q0-7.637,0-15.275a8.71,8.71,0,0,0-.461-3,3.272,3.272,0,0,0-3.267-2.289,3.309,3.309,0,0,0-3.339,2.185,7.663,7.663,0,0,0-.477,2.87q.013,11.976.005,23.951c0,.666.209,1.32-.959,1.319-1.108,0-1.008-.559-1.008-1.275q.013-11.731.007-23.462a9.113,9.113,0,0,0-.447-3.245,3.547,3.547,0,0,0-6.682.023,10.091,10.091,0,0,0-.448,3.491q0,11.609,0,23.217c0,1.146-.551,1.532-1.639,1.195-.61-.188-.347-.67-.348-1.013C247.053,276.463,247.059,271.493,247.059,266.524Z" transform="translate(678.755 -191.79)"/><path class="a" d="M461.9,221.838q0-9.226-.007-18.452c0-.668-.017-1.134.925-1.129s1.023.41,1.022,1.176q-.027,18.207-.022,36.414a12.839,12.839,0,0,1-.2,2.062c-.494,3-2.424,4.568-5.54,4.543-3.078-.025-5-1.664-5.438-4.663a15.6,15.6,0,0,1-.165-2.189q-.014-18.024.006-36.048c0-.482-.335-1.186.649-1.274.948-.084,1.226.207,1.223,1.192-.037,11.894-.023,23.788-.026,35.681a10.582,10.582,0,0,0,.4,3.376,3.575,3.575,0,0,0,6.811-.075,10.432,10.432,0,0,0,.363-3.02Q461.891,230.637,461.9,221.838Z" transform="translate(526.054 -155.789)"/><path class="a" d="M142.538,264.138c-.132-2.737.216-5.268-.218-7.773-.392-2.262-1.631-3.331-3.68-3.292-1.97.037-3.133,1.121-3.5,3.358a14.679,14.679,0,0,0-.177,2.549c.007.651-.124.953-.859.919-.639-.03-1.127-.02-1.03-.888.108-.968.052-1.959.21-2.917.5-3.007,2.445-4.569,5.545-4.531s4.963,1.619,5.422,4.671a16.7,16.7,0,0,1,.185,2.429q.023,8.186,0,16.37c-.01,2.277-.1,4.555-.169,6.832-.011.329.216.827-.26.947-.452.113-1.214.266-1.375-.071-.336-.7-.627-.324-.992-.175a7.517,7.517,0,0,1-4.072.444,4.8,4.8,0,0,1-4.3-4.6,46.818,46.818,0,0,1,.016-10.6c.574-4.5,4.362-5.23,8.2-4.157A8.286,8.286,0,0,1,142.538,264.138Zm-.065,9.39c0-1.929.054-3.517-.013-5.1-.1-2.251-1.328-3.6-3.26-3.7-2.408-.121-3.757.824-4.044,3.218a46.131,46.131,0,0,0,0,10.571,3.082,3.082,0,0,0,3.36,3.11,3.333,3.333,0,0,0,3.791-2.979C142.686,276.843,142.364,275.005,142.473,273.529Z" transform="translate(763.534 -192.442)"/><path class="b" d="M395.259,233.954c.115-2.805-.211-6.271.148-9.724.283-2.717,1.492-3.889,4.2-4.2a20.422,20.422,0,0,0,3.366-.553,2.021,2.021,0,0,0,1.528-1.708,27.587,27.587,0,0,0,.2-5.6,35.86,35.86,0,0,0-.205-6.7,3.6,3.6,0,0,0-7.13.035,18.414,18.414,0,0,0-.206,4.139c.018.731-.1,1.109-.976,1.091-.8-.017-.944-.33-.932-1.026a19.643,19.643,0,0,1,.409-5.092c.708-2.5,2.384-3.68,5.2-3.7,2.914-.02,4.627,1.135,5.374,3.639a5.691,5.691,0,0,1,.269,1.309,80.774,80.774,0,0,1-.089,12.316,3.207,3.207,0,0,1-2.565,2.908,34.01,34.01,0,0,1-3.722.644c-2,.339-2.911,1.227-2.932,3.256-.063,5.906-.031,11.814-.064,17.72,0,.687.283.8.872.793,2.526-.023,5.052-.014,7.578,0,.494,0,1.074-.188,1.086.706.01.849-.492.767-1.033.765-3.1,0-6.193-.029-9.288.017-.849.013-1.115-.227-1.1-1.09C395.288,240.8,395.259,237.7,395.259,233.954Z" transform="translate(568.573 -154.791)"/><path class="a" d="M80.871,224.076c0-6.845.022-13.691-.023-20.536-.007-1.036.308-1.3,1.308-1.282,2.973.062,5.948.03,8.923.015.588,0,.989.012.99.813s-.415.8-1,.8c-2.444-.015-4.89.02-7.334-.022-.747-.013-.97.2-.965.961q.052,7.028,0,14.057c-.007.833.278,1.034,1.055,1.016,2-.045,3.993,0,5.989-.022.6-.006.989.037.99.826,0,.833-.465.787-1.024.785-1.956-.01-3.914.048-5.867-.026-.931-.036-1.151.253-1.147,1.16.037,7.415,0,14.832.045,22.247.006.949-.284,1.141-1.166,1.13-.963-.01-.776-.6-.777-1.144q-.007-9.351,0-18.7Z" transform="translate(802.284 -155.789)"/><path class="a" d="M159.031,229.524q16.253,0,32.507.011c.446,0,1.1-.311,1.143.624.033.792-.11,1.153-1.039,1.143-4.44-.049-8.88-.022-13.32-.022q-25.907,0-51.815-.017c-.449,0-1.174.408-1.247-.628-.066-.933.237-1.136,1.141-1.133C137.279,229.536,148.155,229.524,159.031,229.524Z" transform="translate(769.274 -176.03)"/><path class="a" d="M195.392,252.035a9.17,9.17,0,0,1,5.317-.827,4.1,4.1,0,0,1,3.7,3.519,30.549,30.549,0,0,1,.291,5.969c.018.841-.6.583-1.029.61-.485.031-.97.11-.965-.686a27.249,27.249,0,0,0-.167-4.878c-.371-2.132-1.509-3.057-3.74-2.985a3.5,3.5,0,0,0-3.412,3.2,18.352,18.352,0,0,0-.074,1.953q-.007,11.613.011,23.227c0,.813-.068,1.245-1.086,1.243-1.045,0-.96-.556-.96-1.238q.01-14.486.014-28.973c0-.537-.3-1.312.77-1.268C194.809,250.93,195.647,250.748,195.392,252.035Z" transform="translate(718.722 -191.948)"/><path class="a" d="M339.607,280.455c2.971,0,5.818,0,8.666,0,.5,0,1.065-.183,1.072.712.006.85-.484.764-1.027.763-3.618-.006-7.236,0-11.023,0,.536-1.546,1.022-2.958,1.514-4.368,2.8-8.017,5.576-16.04,8.42-24.041.4-1.14.072-1.258-.949-1.232-2.442.06-4.887.009-7.33.027-.626,0-1.07.012-1.054-.865.015-.816.426-.8,1-.794,3.34.013,6.68.047,10.018-.018,1.044-.021.993.344.726,1.1q-4.693,13.336-9.354,26.684C340.062,279.066,339.854,279.714,339.607,280.455Z" transform="translate(611.643 -191.754)"/></g></svg>