<svg xmlns="http://www.w3.org/2000/svg" width="107.512" height="44.961" viewBox="0 0 107.512 44.961"><defs><style>.a{fill:#fff;fill-rule:evenodd;}</style></defs><path class="a" d="M247.06,266.635c0-4.922-.006-9.844.012-14.766,0-.384-.279-1.061.432-1.054.525.005,1.375-.54,1.553.574.09.56.393.177.614.091,2.775-1.072,5.428-1.23,7.728,1.074.31.31.437.137.666-.1,2.06-2.112,4.551-2.048,7.061-1.176,1.794.622,2.554,2.216,2.876,4a11.168,11.168,0,0,1,.165,1.957c.011,8.08,0,16.161.02,24.242,0,.807-.042,1.3-1.084,1.234-.742-.05-.856-.311-.85-.955.027-2.953.012-5.906.012-8.859q0-7.691,0-15.382a8.773,8.773,0,0,0-.464-3.021,3.294,3.294,0,0,0-3.29-2.305,3.333,3.333,0,0,0-3.362,2.2,7.717,7.717,0,0,0-.48,2.89q.013,12.06.005,24.118c0,.67.211,1.329-.966,1.328-1.116,0-1.016-.563-1.015-1.284q.013-11.814.007-23.626a9.179,9.179,0,0,0-.45-3.268,3.572,3.572,0,0,0-6.729.023,10.161,10.161,0,0,0-.451,3.516q0,11.69,0,23.38c0,1.154-.555,1.542-1.65,1.2-.614-.19-.349-.675-.35-1.02C247.054,276.644,247.06,271.639,247.06,266.635Z" transform="translate(-204.078 -237.825)"/><path class="a" d="M461.969,221.976q0-9.291-.008-18.581c0-.672-.017-1.142.932-1.137s1.03.412,1.029,1.184q-.027,18.335-.022,36.67a12.935,12.935,0,0,1-.2,2.076c-.5,3.017-2.441,4.6-5.579,4.575-3.1-.026-5.04-1.676-5.476-4.7a15.706,15.706,0,0,1-.166-2.2q-.014-18.15.006-36.3c0-.485-.337-1.194.654-1.283.955-.085,1.234.208,1.231,1.2-.037,11.977-.023,23.955-.026,35.931a10.654,10.654,0,0,0,.407,3.4,3.6,3.6,0,0,0,6.859-.076,10.506,10.506,0,0,0,.365-3.041Q461.958,230.835,461.969,221.976Z" transform="translate(-356.409 -201.911)"/><path class="a" d="M142.6,264.226c-.133-2.756.217-5.3-.22-7.827-.395-2.278-1.643-3.354-3.706-3.315-1.984.037-3.155,1.128-3.526,3.382a14.779,14.779,0,0,0-.179,2.567c.007.656-.125.96-.865.925-.644-.03-1.134-.02-1.037-.894.109-.975.052-1.973.211-2.937.5-3.028,2.462-4.6,5.584-4.563s5,1.631,5.46,4.7a16.812,16.812,0,0,1,.186,2.446q.023,8.243,0,16.485c-.01,2.293-.1,4.587-.17,6.88-.011.331.218.833-.261.953-.455.114-1.223.267-1.385-.071-.339-.7-.632-.326-1-.176a7.569,7.569,0,0,1-4.1.448,4.83,4.83,0,0,1-4.328-4.635,47.146,47.146,0,0,1,.016-10.677c.578-4.536,4.393-5.267,8.26-4.186A8.343,8.343,0,0,1,142.6,264.226Zm-.065,9.456c0-1.943.054-3.542-.013-5.135-.1-2.266-1.337-3.624-3.283-3.722-2.425-.122-3.783.83-4.072,3.24a46.454,46.454,0,0,0,0,10.645,3.1,3.1,0,0,0,3.384,3.132,3.356,3.356,0,0,0,3.817-3C142.754,277.02,142.43,275.169,142.539,273.682Z" transform="translate(-119.504 -238.475)"/><path class="a" d="M395.259,234.185c.116-2.825-.212-6.315.149-9.792.284-2.736,1.5-3.916,4.229-4.225a20.565,20.565,0,0,0,3.39-.557,2.035,2.035,0,0,0,1.539-1.72,27.781,27.781,0,0,0,.2-5.644,36.114,36.114,0,0,0-.206-6.748,3.628,3.628,0,0,0-7.18.035,18.543,18.543,0,0,0-.207,4.168c.018.736-.1,1.117-.983,1.1-.8-.017-.951-.333-.938-1.034a19.781,19.781,0,0,1,.412-5.128c.713-2.518,2.4-3.706,5.238-3.725,2.934-.02,4.66,1.143,5.412,3.665a5.731,5.731,0,0,1,.271,1.319,81.341,81.341,0,0,1-.09,12.4,3.23,3.23,0,0,1-2.583,2.928,34.244,34.244,0,0,1-3.748.648c-2.017.341-2.931,1.236-2.953,3.279-.064,5.947-.031,11.9-.065,17.844,0,.692.284.8.878.8,2.543-.023,5.087-.014,7.631,0,.5,0,1.082-.189,1.093.711.01.855-.5.772-1.04.771-3.118,0-6.236-.03-9.353.017-.855.013-1.123-.229-1.11-1.1C395.289,241.08,395.259,237.961,395.259,234.185Z" transform="translate(-313.993 -200.915)"/><path class="a" d="M80.871,224.229c0-6.893.022-13.787-.023-20.68-.007-1.044.31-1.311,1.318-1.29,2.994.062,5.99.03,8.986.016.592,0,1,.012,1,.819s-.418.81-1,.806c-2.462-.015-4.924.02-7.385-.022-.752-.013-.977.2-.972.968q.052,7.077,0,14.155c-.007.839.28,1.041,1.063,1.024,2.01-.045,4.021,0,6.031-.022.6-.006,1,.037,1,.832,0,.839-.469.793-1.031.79-1.97-.01-3.941.048-5.908-.027-.938-.036-1.159.255-1.155,1.168.037,7.467,0,14.936.045,22.4.006.956-.286,1.149-1.174,1.138-.969-.011-.782-.609-.782-1.152q-.007-9.417,0-18.833Z" transform="translate(-80.848 -201.911)"/><path class="a" d="M159.268,229.524q16.367,0,32.735.011c.449,0,1.113-.313,1.151.628.033.8-.11,1.162-1.046,1.151-4.471-.05-8.942-.022-13.414-.022q-26.089,0-52.178-.018c-.452,0-1.182.411-1.256-.632-.067-.939.239-1.144,1.149-1.141C137.363,229.536,148.315,229.524,159.268,229.524Z" transform="translate(-113.777 -222.103)"/><path class="a" d="M195.407,252.043a9.234,9.234,0,0,1,5.354-.833,4.126,4.126,0,0,1,3.728,3.544,30.76,30.76,0,0,1,.293,6.011c.018.847-.6.587-1.036.614-.489.031-.977.111-.971-.69a27.44,27.44,0,0,0-.168-4.912c-.374-2.147-1.52-3.078-3.766-3.006a3.529,3.529,0,0,0-3.436,3.221,18.472,18.472,0,0,0-.075,1.966q-.007,11.694.011,23.39c0,.819-.068,1.254-1.094,1.252-1.052,0-.967-.56-.967-1.247q.01-14.588.014-29.176c0-.541-.3-1.321.776-1.277C194.82,250.93,195.664,250.747,195.407,252.043Z" transform="translate(-164.207 -237.982)"/><path class="a" d="M339.623,280.664c2.992,0,5.859,0,8.727,0,.5,0,1.072-.184,1.079.717.006.856-.488.769-1.034.769-3.643-.006-7.287,0-11.1,0,.54-1.557,1.029-2.979,1.525-4.4,2.818-8.073,5.615-16.153,8.479-24.209.407-1.148.073-1.267-.956-1.241-2.459.061-4.921.009-7.382.027-.631,0-1.078.012-1.062-.871.015-.822.429-.8,1.008-.8,3.363.013,6.727.048,10.088-.018,1.051-.021,1,.347.731,1.11q-4.726,13.43-9.42,26.871C340.081,279.266,339.872,279.918,339.623,280.664Z" transform="translate(-271.027 -237.789)"/></svg>