<svg xmlns="http://www.w3.org/2000/svg" width="1366.999" height="631.857" viewBox="0 0 1366.999 631.857"><defs><style>.a{fill:#9f9f9f;stroke:rgba(0,0,0,0);stroke-miterlimit:10;opacity:0.1;}</style></defs><path class="a" d="M1575.889,630.856h-1366V171c16.932-9.163,35.138-18.126,54.112-26.641,19.543-8.77,40.449-17.312,62.138-25.388,22.308-8.306,46.071-16.353,70.629-23.918C422,87.283,448.776,79.8,476.356,72.823c28.306-7.164,58.253-14,89.011-20.329,31.54-6.486,64.815-12.612,98.9-18.209,34.922-5.735,71.681-11.076,109.257-15.874C811.988,13.5,852.389,9.016,893.6,5.088c17.791-1.7,35.585-2.986,52.888-3.831C963.6.422,980.7,0,997.3,0c18.1,0,36.149.5,53.643,1.495,17.282.98,34.5,2.464,51.174,4.41,16.471,1.923,32.868,4.351,48.735,7.216,15.672,2.83,31.258,6.164,46.325,9.91,14.883,3.7,29.668,7.9,43.945,12.494,14.1,4.535,28.1,9.57,41.594,14.968,13.332,5.332,26.546,11.163,39.273,17.332,12.573,6.093,25.016,12.682,36.982,19.584,11.82,6.817,23.5,14.127,34.72,21.726,11.081,7.507,22.012,15.5,32.488,23.758,10.35,8.158,20.539,16.8,30.285,25.68,9.629,8.775,19.088,18.024,28.112,27.49,8.919,9.355,17.656,19.176,25.969,29.19,8.215,9.9,16.241,20.253,23.855,30.78,7.525,10.405,14.849,21.259,21.77,32.259,6.843,10.876,13.476,22.19,19.716,33.628V630.855Z" transform="translate(-209.39 0.502)"/></svg>