<svg xmlns="http://www.w3.org/2000/svg" width="206" height="54" viewBox="0 0 206 54"><defs><style>.a{fill:#fff;}.b{font-size:20px;font-family:Montserrat-Regular, Montserrat;}</style></defs><g transform="translate(-1782 -2323)"><rect class="a" width="206" height="54" rx="5" transform="translate(1782 2323)"/><text class="b" transform="translate(1846 2355)"><tspan x="0" y="0">Google Play</tspan></text><path d="M24.163,12.023,3.957.357a2.612,2.612,0,0,0-2.638,0L1.3.369,1.264.391A2.61,2.61,0,0,0,0,2.642V25.974a2.611,2.611,0,0,0,1.319,2.285,2.612,2.612,0,0,0,2.638,0L24.163,16.593a2.638,2.638,0,0,0,0-4.57ZM1.7,26.173a1.009,1.009,0,0,1-.02-.2V2.642a.977.977,0,0,1,.055-.33l11.42,11.912ZM4.147,2.4,17.238,9.963l-2.922,3.048ZM3.785,26.421,14.315,15.436l3.027,3.157ZM23.324,15.139l-4.485,2.59-3.361-3.505,3.256-3.4,4.59,2.65a.96.96,0,0,1,0,1.663Zm0,0" transform="translate(1803.001 2336)"/></g></svg>