<svg xmlns="http://www.w3.org/2000/svg" width="16.177" height="16.177" viewBox="0 0 16.177 16.177"><defs><style>.a{fill:#c6c6c6;fill-rule:evenodd;}</style></defs><path class="a" d="M8.088,1.438a24.8,24.8,0,0,1,3.235.09,4.168,4.168,0,0,1,1.528.27,3.156,3.156,0,0,1,1.528,1.528,4.168,4.168,0,0,1,.27,1.528c0,.809.09,1.078.09,3.235a24.8,24.8,0,0,1-.09,3.235,4.168,4.168,0,0,1-.27,1.528,3.156,3.156,0,0,1-1.528,1.528,4.168,4.168,0,0,1-1.528.27c-.809,0-1.078.09-3.235.09a24.8,24.8,0,0,1-3.235-.09,4.168,4.168,0,0,1-1.528-.27A3.156,3.156,0,0,1,1.8,12.851a4.168,4.168,0,0,1-.27-1.528c0-.809-.09-1.078-.09-3.235a24.8,24.8,0,0,1,.09-3.235A4.168,4.168,0,0,1,1.8,3.325a3.228,3.228,0,0,1,.629-.9,1.519,1.519,0,0,1,.9-.629,4.168,4.168,0,0,1,1.528-.27,24.8,24.8,0,0,1,3.235-.09M8.088,0A26.554,26.554,0,0,0,4.763.09,5.548,5.548,0,0,0,2.786.449a3.518,3.518,0,0,0-1.438.9,3.518,3.518,0,0,0-.9,1.438A4.1,4.1,0,0,0,.09,4.763,26.554,26.554,0,0,0,0,8.088a26.554,26.554,0,0,0,.09,3.325,5.548,5.548,0,0,0,.359,1.977,3.518,3.518,0,0,0,.9,1.438,3.518,3.518,0,0,0,1.438.9,5.548,5.548,0,0,0,1.977.359,26.553,26.553,0,0,0,3.325.09,26.553,26.553,0,0,0,3.325-.09,5.548,5.548,0,0,0,1.977-.359,3.77,3.77,0,0,0,2.337-2.337,5.548,5.548,0,0,0,.359-1.977c0-.9.09-1.168.09-3.325a26.553,26.553,0,0,0-.09-3.325,5.548,5.548,0,0,0-.359-1.977,3.518,3.518,0,0,0-.9-1.438,3.518,3.518,0,0,0-1.438-.9A5.548,5.548,0,0,0,11.413.09,26.554,26.554,0,0,0,8.088,0m0,3.954A4.067,4.067,0,0,0,3.954,8.088,4.134,4.134,0,1,0,8.088,3.954m0,6.83a2.648,2.648,0,0,1-2.7-2.7,2.648,2.648,0,0,1,2.7-2.7,2.648,2.648,0,0,1,2.7,2.7,2.648,2.648,0,0,1-2.7,2.7m4.314-8a.989.989,0,1,0,.989.989,1,1,0,0,0-.989-.989"/></svg>