<svg xmlns="http://www.w3.org/2000/svg" xmlns:xlink="http://www.w3.org/1999/xlink" width="583" height="768" viewBox="0 0 583 768"><defs><style>.a{fill:#fff;}.b{fill:none;}.c{clip-path:url(#a);}.d{fill:#1d5826;}.e{fill:#297d36;}.f{fill:#4fb104;}.g{fill:#f2a133;}.h{fill:#22b51c;}.i{fill:#ff1d1a;}.j{fill:#009444;}.k{fill:#73a32d;}.l{fill:#7dc800;}.m{fill:#f7d321;}.n{fill:#fde3a0;}.o{fill:#f5b71a;}.p{fill:#a12963;}.q{fill:#e5342a;}.r{fill:#6b993f;}.s{fill:#e6352b;}.t{fill:#61bb46;}.u{clip-path:url(#b);}.v{fill:#dd1d3e;}.w{fill:#62bc47;}</style><clipPath id="a"><rect class="a" width="583" height="768"/></clipPath><clipPath id="b"><rect class="b" width="212.644" height="314.996"/></clipPath></defs><g class="c"><g transform="translate(-1082.658 -139.497)"><g transform="translate(-47.19 -8.255)"><path class="d" d="M851.6,139.391S708.959,278.034,650.774,717.376l53.521,6.665s13.618-132.146,39.9-145.276,109.812,3.915,154.448-129.351c0,0-28.88,20.64-65.478,19.332s-84.049,54.413-84.049,54.413-36.029-51.5,118.958-318.011c0,0,64.995-59.074-16.478-65.757" transform="translate(787.949 264.926)"/><path class="e" d="M216.978,617.525c3.524-5.433,7.409-10.817,11.3-16.386,3.831-5.608,8.033-11.118,12.246-16.777q3.61-4.823,7.37-9.689c.031-.11.047-.209.079-.317.561-1.919.917-4.161,1.4-6.559s1-4.978,1.543-7.72c.417-2.746.766-5.657,1.309-8.622.4-2.982.559-6.094.929-9.216.276-3.134.3-6.323.463-9.51-.1-3.173.02-6.36-.183-9.482-.313-3.106-.3-6.2-.77-9.144-.325-2.966-.783-5.8-1.242-8.51-.183-1.362-.516-2.648-.793-3.911s-.463-2.508-.783-3.665c-.62-2.311-1.13-4.461-1.72-6.333-.537-1.9-1.12-3.494-1.547-4.85-.48-1.313-.862-2.35-1.122-3.049-.25-.679-.443-1.079-.443-1.079a1.673,1.673,0,0,1,2.7-1.913l.079.085s.281.285.813.951c.557.656,1.28,1.589,2.163,2.848a51.838,51.838,0,0,1,2.856,4.654,60.71,60.71,0,0,1,3.128,6.366,71.228,71.228,0,0,1,2.864,7.886c.411,1.431.837,2.9,1.27,4.4.386,1.516.626,3.1.953,4.691a80.64,80.64,0,0,1,1.352,9.933c.25,3.4.287,6.864.307,10.325-.28,3.451-.417,6.907-.823,10.274-.549,3.352-1.069,6.653-1.732,9.795-.644,2.7-1.39,5.256-2.079,7.73q4.223-5.268,8.555-10.545c4.707-5.713,9.608-11.337,14.439-17.051l14.9-16.895c10.092-11.136,20.382-22.1,30.714-32.679,1.209-1.25,2.419-2.484,3.634-3.724.949-1.866,1.705-4.114,2.772-6.413,1.065-2.413,2.211-5.018,3.165-7.882s2.232-5.758,3.081-8.923c.866-3.154,2.049-6.309,2.722-9.681.787-3.327,1.73-6.673,2.209-10.118.276-1.715.646-3.409.976-5.114.228-1.715.453-3.427.677-5.12.5-3.388.74-6.756,1.079-10.008.207-3.258.39-6.419.526-9.425.026-3.008.163-5.866.11-8.5-.01-5.279-.234-9.7-.406-12.793-.106-1.539-.183-2.752-.24-3.573-.083-.837-.124-1.285-.124-1.285l-.006-.063a1.679,1.679,0,0,1,3.226-.787s.173.433.5,1.236c.329.833.8,2.033,1.272,3.581.494,1.551,1.053,3.435,1.569,5.634s1.089,4.681,1.47,7.433c.516,2.738.793,5.736,1.069,8.909.224,3.187.376,6.555.313,10.037a97.313,97.313,0,0,1-.646,10.734q-.32,2.729-.642,5.5c-.333,1.827-.63,3.667-1.016,5.49-.636,3.675-1.74,7.252-2.7,10.791a38.085,38.085,0,0,1-1.715,5.173q-.963,2.515-1.892,4.966c-.313.815-.622,1.618-.929,2.421-.38.766-.76,1.535-1.13,2.283-.069.152-.14.287-.215.435,4.071-3.984,8.132-7.921,12.136-11.789,10.161-9.742,20.155-18.986,29.767-27.586,9.565-8.665,18.793-16.647,27.378-23.923,17.12-14.628,31.949-26.134,42.3-34.214,10.407-8.008,16.561-12.337,16.561-12.337a1.663,1.663,0,0,1,2.028,2.634s-5.724,4.783-15.632,13.327c-9.937,8.5-23.876,20.955-40.443,36.051-8.246,7.592-17.155,15.831-26.47,24.653-3.211,3.041-6.486,6.183-9.785,9.358,2.636-1.427,5.451-2.726,8.323-4.1,3.811-1.917,7.935-3.4,12.069-5.094,4.154-1.63,8.5-2.884,12.777-4.366a231.166,231.166,0,0,1,25.789-6.073c2.079-.35,4.128-.693,6.124-1.039,2.018-.25,3.994-.494,5.913-.74,3.831-.526,7.48-.787,10.837-1.037a148.986,148.986,0,0,1,22.494-.11,1.677,1.677,0,0,1,.134,3.321l-5.978,1.067c-3.807.671-9.228,1.715-15.7,2.941-3.228.663-6.72,1.38-10.421,2.138-3.675.813-7.549,1.673-11.557,2.557-4.02.831-8.075,2.065-12.272,2.988-4.159,1.069-8.346,2.3-12.547,3.457-4.138,1.327-8.366,2.433-12.386,3.9-4,1.488-8.1,2.6-11.817,4.232-3.738,1.606-7.549,2.768-10.876,4.447-3.346,1.63-6.717,2.835-9.569,4.413-2.868,1.529-5.563,2.87-7.949,4.083-.726.4-1.4.783-2.059,1.169-.183.183-.366.364-.553.543-9.935,9.858-20.112,20.126-30.293,30.708-6.427,6.61-12.8,13.409-19.142,20.268.272-.177.526-.366.8-.533,4.675-2.75,9.346-5.894,14.4-8.533q3.838-1.884,7.736-3.8a82.033,82.033,0,0,1,7.9-3.589,171.146,171.146,0,0,1,16.258-5.927c2.738-.827,5.407-1.77,8.118-2.455q4.088-.948,8.069-1.862c5.264-1.36,10.514-1.888,15.415-2.707,4.957-.463,9.612-1.1,13.966-1.126,2.169-.065,4.232-.177,6.207-.193q2.963.067,5.61.13c3.518.081,6.583.392,9.1.626,2.514.276,4.484.573,5.843.823,1.372.22,2.045.386,2.045.386l.087.016a1.666,1.666,0,0,1-.463,3.285s-.736-.033-2.018,0c-1.276-.006-3.2.124-5.644.2-2.441.154-5.407.321-8.789.64s-7.2.734-11.327,1.339c-2.069.254-4.218.573-6.429,1.02q-3.323.576-6.85,1.173c-2.329.528-4.722,1.073-7.156,1.622-2.455.5-4.947,1.061-7.439,1.8-2.508.683-5.053,1.384-7.626,2.085-2.539.823-5.114,1.652-7.705,2.5-5.24,1.516-10.3,3.772-15.472,5.748a74.37,74.37,0,0,0-7.6,3.291q-3.753,1.75-7.459,3.492c-4.888,2.392-9.525,5.118-14.126,7.563-4.5,2.6-8.675,5.433-12.752,7.941-4.138,2.439-7.61,5.362-11.055,7.76-2.222,1.711-4.443,3.179-6.433,4.651-.453.51-.913,1.022-1.366,1.532-4.833,5.636-9.734,11.183-14.441,16.815-9.439,11.226-18.644,22.358-27.2,33.4-8.569,11.033-16.738,21.791-24.136,32.236q-5.332,7.463-10.2,14.614c15.622-11.213,51.907-34.724,77.257-31.273,33.09,4.5,70.732-2.144,90.85-25.653s17.866-47.984,41.667-54.565,57.352-9.2,74.242-56.767,35.3-66.9,60.69-83.4,63.169-25.523,50.9-57.316C598.472,300.781,540.817,265.047,472.1,280.2c-63.828,14.065-86.625,71.236-98.088,71.454s-22.722-10.045-45.019,2.837-43.756,79.71-67.45,92.023-42.95,7.742-52.318,34.8c-8.183,23.647,9.888,103.243,1.7,145.363,1.953-3.02,3.961-6.069,6.057-9.153" transform="translate(33.781 339.586)"/><path class="f" d="M315.827,382.878c.427,4.923,3.978,9.128,4.561,14.028.459,3.8-.907,7.543-2.169,11.149-13.179,37.59-17.953,79.367-5.61,117.229s44.039,70.72,83.324,77.279c16.031,2.667,33.238,1.211,47.679,8.667,6.577,3.392,12.224,8.5,19.057,11.354s15.848,2.748,20.451-3.055c3.179-4.018,3.366-9.533,4.144-14.594,1.793-11.77,7.35-22.569,12.1-33.484,11.181-25.663,18.313-53.7,15.779-81.568a123.922,123.922,0,0,0-47.338-85.96c-23-17.649-51.275-26.2-79.686-30-12.567-1.677-74.153-12.364-72.3,8.953" transform="translate(339.394 361.798)"/><path class="d" d="M373.76,397.944a5.291,5.291,0,0,0,2.626.49,3.749,3.749,0,0,0,2.817-3.571,9.984,9.984,0,0,0-1.248-4.7c-2.177-4.679-7.516-5.185-12.228-5.4a5.154,5.154,0,0,0-2.821.435c-1.526.854-1.913,3.008-1.266,4.632a8.842,8.842,0,0,0,3.508,3.787,40.987,40.987,0,0,0,8.612,4.327" transform="translate(373.096 397.262)"/><path class="d" d="M351.864,377.5a10.234,10.234,0,0,0-6.756,1.62,2.042,2.042,0,0,0-.9,1.12,2.135,2.135,0,0,0,.746,1.789,15.045,15.045,0,0,0,7.329,4.039c1.976.522,4.274.744,5.868-.528,5.657-4.52-3.116-7.793-6.291-8.039" transform="translate(355.382 389.74)"/><path class="d" d="M356.555,385.934c-1.965-.3-4.358-.154-5.407,1.535a3.577,3.577,0,0,0,0,3.459,6.493,6.493,0,0,0,2.545,2.5,6.655,6.655,0,0,0,5.344.925c1.913-.616,3.738-3.222,3.242-5.315-.6-2.488-3.482-2.762-5.724-3.106" transform="translate(362.113 398.361)"/><path class="d" d="M392.382,402.09c-1.226-4.854-7.537-6.272-11.791-3.722a7.3,7.3,0,0,0-3.274,5.821,11.586,11.586,0,0,0,1.86,6.583,11.141,11.141,0,0,0,4.573,4.4,6.809,6.809,0,0,0,6.181-.026,7.54,7.54,0,0,0,3.4-5.99,21.64,21.64,0,0,0-.953-7.065" transform="translate(389.58 410.042)"/><path class="d" d="M376.359,402.593c-.01-.362-.262-.724-.86-1.035-3.488-1.789-9.907-4.134-13.681-1.886-5.136,3.069,4.587,6.069,6.5,6.791,2.423.929,9.7,4.606,10.831.061.419-1.671-.921-2.957-2.787-3.931" transform="translate(372.062 411.725)"/><path class="d" d="M381.5,412.612l-.673-.506a1.885,1.885,0,0,0-.62-.276,3.449,3.449,0,0,1-.459-.467c-.661-.85-2.163-.74-3.079-.472-.6.177-2.122.943-1.451,1.8a6.309,6.309,0,0,0,2.726,1.994,3.862,3.862,0,0,0,3.171-.344c.652-.411,1.179-1.126.386-1.728" transform="translate(387.25 424.058)"/><path class="d" d="M356.113,397.007c.114-.209.073-.408-.339-.543a8.628,8.628,0,0,0-5.311.15c-.309.087-1.486.65-.965,1.132a6.216,6.216,0,0,0,5.167,1.48c.61-.1,2.565-.467,2.461-1.457-.043-.465-.486-.671-1.012-.762" transform="translate(360.734 409)"/><path class="d" d="M333.007,376.577a2.488,2.488,0,0,0-.079-.248c-.506-1.234-2.043-1.423-3.222-1.256a7.757,7.757,0,0,0-4.687.87c-.943.524-1.563,1.575-.2,2.081a29.122,29.122,0,0,0,2.618,1.309,5.653,5.653,0,0,0,4.445-.522,2.079,2.079,0,0,0,1.152-2.116,1.012,1.012,0,0,0-.03-.118" transform="translate(334.572 387.212)"/><path class="d" d="M341.114,382.467c-.224-.152-.449-.319-.673-.476a1.944,1.944,0,0,0-.3-.124,1.91,1.91,0,0,0-.427-.236,6.644,6.644,0,0,0-5.543.581c-.384.211-.8.75-.463,1.177,1.679,2.085,5.167,1.717,7.226.486.61-.362.793-.974.183-1.409" transform="translate(344.434 393.658)"/><path class="d" d="M334.826,396.592c-.026-.642-.7-1.126-1.382-1.3a10.57,10.57,0,0,0-4.392-.2,2.811,2.811,0,0,0-1.967,1.061,1.141,1.141,0,0,0,.226,1.571A7.684,7.684,0,0,0,332.876,399c.9-.124,2.335-.766,2.179-1.888a1.153,1.153,0,0,0-.23-.524" transform="translate(337.507 407.801)"/><g transform="translate(347 -207)"><path class="d" d="M597.852,337.406c10.291,13.419,25.118,22.732,35.968,35.712a55.98,55.98,0,0,1,8.451,13.766c-2.864,13.831-6,28.669-4.555,42.427a1.067,1.067,0,0,0,2.026.295c4.5-9.449,6.26-20.157,7.913-30.63,12.781-29.638,37.856-54,68.257-65.066,12.447-4.533,27.4-8.443,32.388-20.726,4.707-11.587-3.1-25.451-14.374-30.888s-24.655-4.205-36.7-.813c10.244-5.774,12.449-21.179,5.659-30.785s-20.246-13.059-31.581-9.923-20.5,11.87-26.374,22.059-8.795,21.789-11.031,33.334c-7.2-13.651-28.716-16.543-39.25-5.279-11.565,12.364-7.1,33.09,3.2,46.517" transform="translate(606.935 247.448)"/><path class="a" d="M599.1,291.751c12.661,10.7,25.427,21.577,38.842,31.317.051.045.114.045.169.085a105.691,105.691,0,0,0,.683,23.984.74.74,0,0,0,1.469-.173,156.842,156.842,0,0,1,.707-18.439c12.931-17.212,27.185-27.171,49.11-30.527.472-.083.526-.844.012-.876-18.031-1.13-37.943,8.522-48.183,23.888,3.705-23.974,13.575-44.728,29.97-65.47,1.722-2.193-1.453-4.535-3.323-2.628-16.488,16.864-27.063,41.324-29.976,65.747-12.4-9.884-25.59-18.984-38.616-28a.7.7,0,0,0-.864,1.094" transform="translate(618.323 260.417)"/></g><g transform="translate(22 -11)"><path class="g" d="M607.079,113.927c-21.045,7.483-59.733,53.862-25.288,111.793s134.19,157.789,143.981,157.974-2.609-143.4-18.572-189.486c-20.039-57.828-59.635-94.677-100.121-80.281" transform="translate(635.383 108.82)"/><path class="h" d="M618.907,171.6s-58.894,7.759-85.786-31.548c0,0,37.819-21.971,76.708-4.3,0,0-22.279-24.869,20.18-86.99a69.033,69.033,0,0,0,12.162,29.585c10.309,13.943,17.357,73.676-23.265,93.25" transform="translate(611.468 66.355)"/></g><path class="d" d="M642.775,324.964s-43.06-3.583-53.816,75.348,236.776,50.213,165.031-35.879-111.215-39.469-111.215-39.469" transform="translate(749.874 -178.481)"/><path class="i" d="M773.4,545.174s16.669-28.817-67.456-72.824-125.4,144.451-9,133.349,76.46-60.525,76.46-60.525" transform="translate(171.43 367.832)"/><path class="f" d="M655.274,294.659s-17.234-1.439-21.535,30.149,94.753,20.1,66.041-14.354-44.506-15.795-44.506-15.795" transform="translate(960.219 288.037)"/><path class="d" d="M546.894,218.978c-26.356-26.474-116.873-11.4-155.142,30.069s-51.639,52.761-68.379,59.314-32.71-28.451-63-3.354-10.01,96.273-25.252,112.454-20.049-23.187-39.842-10.9,11.858,59.326-2.346,69.425-28.6-52.765-60.925-28.008,21.384,107.826,1.006,154.408c0,0,63.431-36.183,97.228-38.811s58.946,2.667,66.084-14.886-17.344-26.9-5.157-37.346,129.8-28.092,123.777-54.12-74.608-27.2-65.293-39.171,134.379-36.7,124.491-70.677-43.561-13.6-37.262-32.346,141.192-64.73,110.013-96.05" transform="translate(-23.734 287.094) rotate(-9)"/><path class="e" d="M964.651,701.946c11.98-6.053,23.161-13.945,31.189-24.413,9.362-12.2,13.949-27.191,17.258-42.084,9.9-44.529,9.776-90.623,9.612-136.3-.041-11.3-.108-22.781-3.543-33.634-10.457-33.029-48.72-50.706-84.2-55.283-44.1-5.693-88.535,2.5-131.822,11.4-20.691,4.254-41.813,8.872-59.56,19.815-26.738,16.494-42.647,45.748-49.2,75.775s-4.827,61.2-3.075,91.956c3.3,57.964,27.429,96.281,90.814,99.525,62.8,3.216,123.109,23.24,182.526-6.76" transform="translate(658.154 287.631)"/><g transform="translate(0 -113)"><path class="f" d="M800.744,433.989a15.3,15.3,0,0,1-29.067-5.4c-.711-9.3,8.868-17.921,18.053-16.207s15.031,13.179,11.014,21.612" transform="translate(796.747 425.569)"/><path class="f" d="M774.535,480.173a23.422,23.422,0,0,1-13.47-22.671c1.02-12.764,14.543-23.018,27.106-20.563s21.234,17.045,17.386,29.248-19.325,19.185-31.023,13.986" transform="translate(785.759 450.778)"/><path class="f" d="M736.4,490.476c.673-7.2,5.557-13.36,11.189-17.89,9.431-7.59,24.313-11.279,33.086-2.935,7.2,6.839,6.742,18.949,1.821,27.569-5.362,9.386-15.949,16.1-26.7,15.063s-20.4-11.053-19.4-21.807" transform="translate(760.282 480.02)"/><path class="f" d="M742.8,512.888c-4.783,2.683-10.823,3.411-15.8,1.122s-8.486-7.882-7.6-13.293c3.661-4.443,7.543-8.955,12.715-11.47s12.01-2.545,16.138,1.459c6.35,6.156,2.252,17.854-5.457,22.181" transform="translate(742.671 503.362)"/><path class="f" d="M711.584,526.395c-10.071-1.262-13.616-14.295-6.026-21.037a24.058,24.058,0,0,1,2.738-2.112c5.3-3.506,12.913-4.372,17.771-.272,4.677,3.939,5.2,11.581,1.789,16.655s-9.994,7.492-16.071,6.793c-.071-.006-.13-.016-.2-.026" transform="translate(724.297 516.519)"/><path class="f" d="M885.152,366.339c-4.3,63.832-28.191,127.274-67.531,179.31-39.356,52.035-93.993,92.436-154.42,114.18.1.167.209.323.307.49l2.372,3.779c32.872,50.382,102.107,72.631,160.735,50.864,40.824-15.161,73.562-47.826,101.668-81.968,35-42.492,66.783-95.226,58.1-147.8-8.921-53.964-56.874-89.1-101.23-118.851M912.441,527.5c-15.409,40.677-46.71,73.5-81.232,99.968-38.878,29.813-90.151,53.673-135.782,35.83C803.084,622.685,883.935,518.515,896.563,404.15c28.2,33.118,31.289,82.667,15.878,123.353" transform="translate(684.78 378.259)"/></g><path class="j" d="M422.563,224.184s-8.189-6.157-14.736.587,9.413,46.061,35.911,41.547,9.118-29.364-5.128-29.537c-10.588-.118-11.3-9.959-16.047-12.6" transform="translate(428.581 232.824)"/><path class="i" d="M900.666,377.489s15.659-27.07-63.365-68.4c-79.006-41.324-117.784,135.687-8.455,125.25,109.34-10.419,71.82-56.853,71.82-56.853" transform="translate(1285.752 -317.588) rotate(45)"/><g transform="translate(32 -35)"><path class="k" d="M565.542,335.5l76.938-28.482a25.868,25.868,0,0,0,14.366-35.25c-19.419-41.893-24.317-90.556-12.653-135.292-6.742.809-12.941-2.081-19.685-1.27-15.2,33.169-17.726,71.389-9.423,106.954A13.854,13.854,0,0,1,608.2,257.6l-.209.114a13.941,13.941,0,0,1-17.951-4.346c-15.8-22.242-20.909-52.842-10.789-77.982-6.344,1.012-11.811,3.087-18.159,4.094-11.057,27.75-12.935,58.744-6.274,87.844a1.942,1.942,0,0,1-3.5,1.53c-22.868-33.33-57.135-58.122-95.631-70.962-7.852,4.216-15.577,8.339-23.421,12.553,44.45,24.421,80.95,63.779,100.316,110.391A25.967,25.967,0,0,0,565.542,335.5" transform="translate(550.338 102.459)"/><path class="l" d="M667.666,146.79c9.722-9.555,9.291-27.4-.878-36.482s-27.951-7.5-36.35,3.23c-.378-12.307-11.264-23.378-23.565-23.951s-24.179,9.433-25.7,21.651c.331-15.11-12.372-29.362-27.425-30.764s-30.165,10.274-32.622,25.187c-11.319-14.157-33.85-17.671-48.939-7.628s-20.553,32.183-11.866,48.09c-18.1-7-40.945,3.329-47.659,21.537s3.978,40.9,22.293,47.315c-19.681,6.431-30.041,32.37-20.216,50.592s37.191,23.807,53.38,10.9c-7.207,7.541-7.616,20.581-.9,28.563s19.638,9.793,28.3,3.982a35.9,35.9,0,0,0,61.523-13.959A44.272,44.272,0,0,0,624.583,253.3c12.98,6.38,29.893,3.5,40.029-6.811s12.726-27.275,6.12-40.141c13.486-3.445,23.565-17.138,22.846-31.033s-12.153-26.486-25.911-28.523M459.854,253c-8.118,1.071-13.35-8.439-11.024-15.378.22-.665,1.364-.3,1.171.364-1.929,6.718,3.724,12.175,9.939,13.014a1.014,1.014,0,0,1-.085,2m-9.246-96.344c-10.512.663-19,5.478-20.714,16.691a.764.764,0,0,1-1.524-.083c-.768-10.882,11.581-23.189,22.724-19.242a1.357,1.357,0,0,1-.486,2.634m47.74-47.025c-4.071.283-7.909.077-11.665,2.045a25.477,25.477,0,0,0-8.921,7.959c-.6.8-2.1.25-1.681-.791,3.287-8.065,14.021-14.689,22.752-11.9,1.6.506.984,2.577-.486,2.683M621.463,121.9a1.254,1.254,0,0,1-2.346.506c-1.419-2.244-1.711-4.89-3.5-6.982a14.678,14.678,0,0,0-5.921-4.559c-5.244-1.874-10.248-.994-14.937,1.829-.807.482-1.59-.713-.923-1.321a16.818,16.818,0,0,1,17.864-2.894c4.651,1.9,10.655,7.978,9.762,13.421m36.228,97c-.642,1-2.014-.057-1.663-1.039,3.348-9.193,2.876-17.825-3.154-25.769-.553-.732.53-1.785,1.189-1.11,7.02,7.191,9.167,19.24,3.628,27.917m1.419-87.989c-.177,1.254-2.228,1.636-2.38.183-.884-8.567-8.858-13.766-16.652-9.031-.7.421-1.407-.628-.813-1.161,7.837-6.988,21.4-.933,19.846,10.008" transform="translate(528.008 45.974)"/></g><g transform="matrix(0.545, 0.839, -0.839, 0.545, 1335.172, -731.565)"><path class="m" d="M700.4,547.594c.654-.75-.06-5.505-.069-6.585q-.024-9.051.3-18.118c.288-8.052-.632-14.6,7.962-17.6,5.1-1.785,10.575-2.805,15.8-4.155,4.416-1.145,13.271-1.678,15.913-5.461,2.464-3.521-.484-10.879-1.069-15.11-.71-5.2-1.254-10.439-1.627-15.681-.522-7.362-1.7-15.737,6.237-19.439,9.366-4.367,21.769-5.369,31.824-7.721q7.043-1.65,14.079-3.285c-12.095-17.466-27.017-32.6-43.258-46.4.06,1.314.123,2.613.19,3.923a1.871,1.871,0,0,1-.766,1.245c-9.038,5.744-22.242,7.781-32.4,11.392q-9.56,3.391-19.026,7.027c-2.868,1.093-7.554,1.908-9.8,4.044-1.723.145-2.345.939-1.874,2.365.221,2.142.455,4.273.727,6.409,1.665,13.911,4.166,27.647,7.114,41.346,1.5,6.969,5.086,18.716-2.294,23.424-7.612,4.849-21.677,4.99-30.436,5.012-6.518.02-15.518-2.571-13.766,7.587.817,4.769,3.289,9.344,3.6,14.2.634,9.933-8.861,10.312-16.67,11.12a143.03,143.03,0,0,1-23.025.433,253.79,253.79,0,0,0,50.1,27.874q16.144-3.073,32.308-6.17c.9-.176,9.355-1.026,9.917-1.68" transform="translate(653.285 423.853)"/><path class="m" d="M710.627,430.849c.544,11.816,3.278,23.224,4.352,34.921.464,4.963-.705,7.123-5.59,8.848-5.78,2.022-12.1,3.117-18.033,4.651-5.22,1.346-15.362,2.446-17.138,7.737-3.345,9.959,1.6,22.422-.573,32.583-1.6,7.478-11.814,6.98-17.935,8.159q-9.346,1.781-18.694,3.571c.777.261,1.542.562,2.327.823,8.116,2.7,16.531,5.017,25.091,4.74,8.435-.27,16.625-3.066,24.19-6.817,25.308-12.566,43.785-35.3,61.432-57.366,8.045-10.064,16.458-21.037,17.12-33.9.486-9.477-3.361-18.5-8.313-26.721q-8.114,1.881-16.219,3.787c-9,2.107-32.545,3.256-32.018,14.987" transform="translate(688.938 453.454)"/><path class="m" d="M642.326,555.035c5.137-.062,20.2,1.176,22.327-4.878,1.453-4.14-3.182-12.39-3.852-16.806-.411-2.709-.977-6.161.576-8.667,4.113-6.643,17.518-3.14,23.364-3.332,5.733-.187,12.508-.448,17.939-2.441,9.4-3.425,6.782-10.894,5.157-18.772-2.613-12.655-5.15-25.263-6.848-38.09-.462-3.472-2.495-10.575-1.524-13.925.98-3.4,3.789-4.108,6.88-5.365,12-4.871,24.235-9.239,36.475-13.427q7.682-2.621,15.4-5.1c4.572-1.466,4.508-.3,4.976-4.253a34.624,34.624,0,0,0-.221-7.058c-12.068-9.667-24.67-18.745-37.224-27.651-12.334-8.736-25.025-17.529-38.751-23.605,3.948,8.315,7.9,16.623,11.787,24.962,2.6,5.6,6.983,12.126,2.162,17.647-4.523,5.182-14.193,7.244-20.461,9.185a136.966,136.966,0,0,1-13.811,3.55c-6.266,1.241-10.013.009-8,7.453,2.256,8.368,15.737,31.592,1.292,35.479-4.258,1.156-10.437-.509-14.739-.948q-7.994-.84-15.987-1.665-13.922-1.436-27.836-2.89c1.122,8.129,2.754,16.156,4.646,24.165,2.02,8.536,5.954,18.174,6.235,26.946.172,5.4-3.435,7.714-8.351,8.687-5.646,1.1-11.2,1.9-16.725,2.959a252.583,252.583,0,0,0,38.512,36.892,133.8,133.8,0,0,0,16.6.946" transform="translate(627.602 391.372)"/><path class="m" d="M618.756,510.764c.823-1.584-1.627-7.982-2.031-9.75-3.595-15.349-7.7-30.525-9.393-46.244-.277-2.577,2.89-4.851,5.24-4.606,18.9,1.957,38.055,3.175,56.862,5.9,6.115.888,3.5-1.607,1.9-7.13-1.111-3.829-2.564-7.549-3.814-11.343-1.464-4.468-4.787-11.622-3.2-16.462,1.377-4.258,5.53-5.369,9.366-6.277,8.975-2.122,17.723-3.314,26.471-6.561,4.53-1.687,9.877-1.917,8.676-7.859-.848-4.146-4.151-8.906-5.956-12.756q-5.968-12.736-12.037-25.431a3.036,3.036,0,0,1-.3-1.145,50.746,50.746,0,0,0-7.076-1.83c-56.73-8.475-116.228,60.013-107.948,109.634,2.807,16.857,11.193,32.19,21.775,45.682,4.026-1.049,8.085-1.959,12.216-2.631.835-.138,8.844-.417,9.252-1.194" transform="translate(612.24 387.544)"/><path class="f" d="M506.152,431.4S567.34,398.93,618.572,406.79c51.212,7.857,55.554-22.041,37.432-31.6s-34.8-13.483-81.5,6.527-70.048,16.6-68.354,49.679" transform="translate(527.668 398.365)"/><path class="f" d="M664.615,395.4s-24.536-8.8-56.288-.038-57.484-11.649-85.12-33.388-42.95-27.562-42.95-27.562,50.616-.864,86.566,6.668,17.567,15.279,48.623,22.621,72.516-3.794,49.17,31.7" transform="translate(495.882 357.775)"/><path class="f" d="M595.532,419.416s-29.432-12.1-50.875-67.892-31.773-77.3-20.285-70.7,34.451,46.657,60.66,77.216,29.825,70.465,10.5,61.372" transform="translate(544.359 290.398)"/><path class="f" d="M583.2,469.069S574.3,465.6,569.46,435.1s-8.2-40.487-3.178-87.724,16.748-75.855,16.748-75.855-1.493,48.085,9.343,76.283,6.427,115.27-9.172,121.266" transform="translate(598.765 280.354)"/><path class="f" d="M576.021,358.754s-6.01,5.775-19.479-22.092-6.628-38.764-13.648-49.846c-2.073-5.4,3.562-6.875,10.247,10.522s36.193,54.9,22.88,61.417" transform="translate(572.487 294.708)"/><path class="f" d="M581.313,432.665s-6.3-71.936,33.489-101,68.8-12.662,76-15.429-34.792,13.371-43.468,28.4-51.446,104.458-66.018,88.03" transform="translate(619.89 332.775)"/></g><path class="n" d="M292.292,468.158a11.807,11.807,0,1,1-11.807-11.807,11.808,11.808,0,0,1,11.807,11.807" transform="translate(277.42 471.2)"/><g transform="translate(-39 -68)"><path class="o" d="M364.836,449.809s-77.785-31.6-159.042-10.417,4.514,104.745,54.519,123.56,76.743,25.413,76.743,25.413l91.328-17.016V506.065Z" transform="translate(177.886 446.142)"/><path class="n" d="M209.135,458.42a11.806,11.806,0,1,1-11.807-11.807,11.808,11.808,0,0,1,11.807,11.807" transform="translate(191.559 461.145)"/><path class="n" d="M218.021,480.288a11.807,11.807,0,1,1-11.807-11.807,11.809,11.809,0,0,1,11.807,11.807" transform="translate(200.733 483.724)"/><path class="n" d="M223.83,463.545a11.807,11.807,0,1,1-11.807-11.807,11.809,11.809,0,0,1,11.807,11.807" transform="translate(206.731 466.437)"/><path class="n" d="M231.859,446.8A11.807,11.807,0,1,1,220.052,435,11.808,11.808,0,0,1,231.859,446.8" transform="translate(215.021 449.149)"/><path class="n" d="M233.4,484.9A11.807,11.807,0,1,1,221.59,473.1,11.808,11.808,0,0,1,233.4,484.9" transform="translate(216.609 488.488)"/><path class="n" d="M239.206,468.158A11.807,11.807,0,1,1,227.4,456.351a11.808,11.808,0,0,1,11.807,11.807" transform="translate(222.607 471.2)"/><path class="n" d="M247.237,451.415a11.808,11.808,0,1,1-11.809-11.807,11.809,11.809,0,0,1,11.809,11.807" transform="translate(230.897 453.912)"/><path class="n" d="M248.306,491.223A11.807,11.807,0,1,1,236.5,479.416a11.808,11.808,0,0,1,11.807,11.807" transform="translate(232.003 495.015)"/><path class="n" d="M254.115,474.48a11.807,11.807,0,1,1-11.807-11.807,11.808,11.808,0,0,1,11.807,11.807" transform="translate(238.001 477.727)"/><path class="n" d="M262.145,457.736a11.807,11.807,0,1,1-11.807-11.807,11.808,11.808,0,0,1,11.807,11.807" transform="translate(246.292 460.438)"/><path class="n" d="M263.993,496.66a11.807,11.807,0,1,1-11.807-11.809,11.808,11.808,0,0,1,11.807,11.809" transform="translate(248.2 500.627)"/><path class="n" d="M269.8,479.916A11.807,11.807,0,1,1,258,468.109,11.808,11.808,0,0,1,269.8,479.916" transform="translate(254.198 483.34)"/><path class="n" d="M277.832,463.173a11.807,11.807,0,1,1-11.807-11.807,11.808,11.808,0,0,1,11.807,11.807" transform="translate(262.49 466.052)"/><path class="n" d="M278.454,501.645a11.807,11.807,0,1,1-11.807-11.807,11.808,11.808,0,0,1,11.807,11.807" transform="translate(263.132 505.776)"/><path class="n" d="M284.262,484.9A11.807,11.807,0,1,1,272.455,473.1,11.808,11.808,0,0,1,284.262,484.9" transform="translate(269.129 488.488)"/><path class="j" d="M331.261,543.025s-39.588-41.252-36.114-116.469c0,0,66.673,33.128,108.69,52.228s46.75,58.338,45.643,81.257l9.919,2.776s11.459,4.169,5.207,21.878-25,9.376-25,9.376-14.585,54.173-111.47,38.545-90.633-11.8-90.633-11.8,29.864-51.049,93.759-77.787" transform="translate(245.146 440.435)"/></g><g transform="translate(648.085 -731)"><path class="p" d="M547.892,437.154s-57.269,48.409-66.444,54.736A307.074,307.074,0,0,1,424.179,522.9c-27.209,11.075-59.166,25.945-47.145,64.229s32.59,49.357,68.977,38.284,112.953-58.217,135.735-114.22,8.86-71.823,8.86-71.823Z" transform="translate(386.611 458.536)"/><path class="l" d="M473.641,484.024l13.288,37.336s15.188-16.136,14.872-20.251c0,0,10.442,14.872,9.493,26.9,0,0,17.083-11.708,4.428-45.247,0,0-6.012-11.391-11.706-15.5,0,0,12.973-29.742,12.024-42.4s-21.2-24.363-23.732,0-.315,32.906-.315,32.906-10.758-6.963-22.464-1.584-29.109,19.3-29.109,19.3l12.339,5.061-9.809,20.884Z" transform="translate(472.568 424.005)"/></g><g transform="translate(-28 -6)"><path class="q" d="M423.949,78s-76.387,3.6-104.338,58.12,18.266,130.066,114.3,134.361,133.674-89.249,107.936-132.147S465.74,76.062,423.949,78" transform="translate(321.676 80.401)"/><path class="r" d="M394.106,98.637s-25.185,9.687-30.167,11.624-22.693,11.624-22.693,11.624L388.017,132.4s-13.008,32.1-17.712,34.594c0,0-.5,4.646,27.578-6.872,16.98-6.966,22.516-11.392,22.516-11.392s22.693,26.567,24.077,37.362c0,0,8.856-11.9,9.687-26.846s8.026-24.077,17.712-24.909,28.506-1.661,28.506-1.661-11.624-19.649-35.425-27.122c0,0,11.348-14.116,11.071-36.533,0,0-22.7,5.813-29.614,16.329,0,0,6.642-10.516,6.919-16.329s-13.837-5.535-18.266-5.535S424.55,61.275,424,67.641s-6.642,16.327-6.642,16.327S405.73,71.792,400.2,66.533s-10.24-6.776-10.24-6.776,4.7,28.364,4.15,38.88" transform="translate(352.349 61.701)"/></g><g transform="matrix(0.875, 0.485, -0.485, 0.875, 678.096, -557.385)"><path class="l" d="M515.945,497.322s14.425-21.681,20.482-47.63c1.337-5.722,3.73-20.671,6.561-24.962,5.413-8.2,16.277-11.573,22.224-1.411s-9.214,15.689,6.817,30.21,19.325,2.169,27.419,16.342c7.1,12.429-40.9,27.017-40.9,27.017l-29.456,6.5Z" transform="translate(532.733 430.592)"/><path class="s" d="M594.684,625.081h0A36.083,36.083,0,0,1,547.4,605.9l-49.98-99.94c-9.368-22.155,7.157-42.793,25.508-50.555,14.443-6.106,39.523.825,47.283,19.177l50.421,98.17c7.76,18.352,2.246,40.4-25.947,52.326" transform="translate(510.809 467.991)"/><path class="s" d="M640.347,605.265h0a36.08,36.08,0,0,0,19.177-47.283L622.631,452.506c-9.368-22.153-35.687-24.673-54.041-16.913-14.441,6.108-26.937,28.931-19.175,47.283l35.315,104.56c7.76,18.352,28.429,29.328,55.616,17.829" transform="translate(564.834 445.648)"/><path class="s" d="M633.607,611.138l-28.685,12.13a20.505,20.505,0,0,1-26.874-10.9l-55.781-131.9a20.505,20.505,0,0,1,10.9-26.874l28.683-12.132a20.511,20.511,0,0,1,26.876,10.9l55.779,131.9a20.507,20.507,0,0,1-10.9,26.876" transform="translate(537.582 454.152)"/></g><path class="t" d="M340.2,297.818c-34.844-60.429-35.433-68.584-42.354-103.716-1.382-7.022-3.159-14.228-5.218-21.433,2.175-.892,3.689-3.447,2.974-9.35-1.053-8.7-5.468-10.335-9.218-10.061-7.84-21.88-17.825-42.206-27.565-55.6-6.315-8.685-15.264-8.787-23.718-5.8,1.321-12.486,4.226-39.958,4.226-39.958a26.746,26.746,0,0,0-20.319,4c-.252,11.679,4.006,33.073,5.7,41.09A88.331,88.331,0,0,0,211,107.6a16.893,16.893,0,0,0-1.594,1.583,3.852,3.852,0,0,0-4.13-2.449c-5.368.406-8.829,10.756-4.52,17.766-3.862,10.827-6.419,27.48-2.209,51.732.65,3.748,1.417,7.4,2.14,11.081-3.665,1.884-9.35,6.124-7.726,13.835,2.177,10.348,4.864,17.4,14.653,16.565a478.92,478.92,0,0,0,16.189,50.419c-2.957,2.2-6.1,5.644-4.4,9.691a10.012,10.012,0,0,0,10.722,5.888q5.68,13.265,11.876,25.456c-5.274,6.039-10.266,16.029,1.309,25.956,6.337,5.435,10.368,3.921,12.931-.39,15.864,26.061,33.078,46.958,49.838,61.488,43.25,37.5,62.474,35.557,72.411,21.447s-3.443-59.425-38.287-119.853m-68.218-93.655c3.675-1.567,5.38,4.911,4.2,6.392s-4.3,4.23-6.415-.165a4.279,4.279,0,0,1,2.211-6.228M254.22,132.408c4.813-1.99,8.714,10.36,3.868,15.744s-11.693,1.616-11.882-6.61,8.014-9.134,8.014-9.134m-22.275,67.346c-6.655-5.039,2.217-8.64,2.217-8.64,1.689.067,3.8-.094,3.457,2.831s.98,10.848-5.675,5.809m38.49,50.815c2.693-4.569,7.274-5.829,11.356,1.8s0,12.8-6.218,12.64-9.533-6.972-5.138-14.437m4.762,71.169c2.661-3.4,6.921,1.974,5.185,6.687s-11.447,1.325-5.185-6.687m50.334,9.461c-1.75.614-7.673-.4-2.787-8.033.575-.9,2.4-4.907,4.8.482s-.266,6.937-2.018,7.551m-1.8,55.2c-7.242,4.663-15.484-2.748-7.972-14.72.933-1.488,2.209-3.325,7.919-.754s7.295,10.811.053,15.474m27.492,14.543c-1.931.681-10-6.421-2.049-8.892,8.447-2.628,3.98,8.211,2.049,8.892" transform="translate(88.95 132.976)"/><g transform="matrix(0.629, -0.777, 0.777, 0.629, 392.848, 358.095)"><g class="u" transform="translate(0 0)"><path class="v" d="M20.562,154.226s-61.613-110.27,28.467-116.7c89.666-6.406,109.59,78.986,85.4,104.6S65.4,179.095,65.4,179.095,32.661,152.8,20.562,154.226" transform="translate(0 135.904)"/><path class="w" d="M55.611,185.522S70.717,147.8,43.237,133.574s-40.292-9.25-33.169-29.179,37,5.693,37,5.693S34.974,74.5,52.05,68.1,73.4,99.413,73.4,99.413s5.7-66.892,24.91-71.165,4.269,39.142,4.269,39.142,23.165-85.075,72.59-64.047c33.444,14.231-51.953,79.7-51.953,79.7s26.335-5.693,24.91,3.557-25.623,24.91-25.623,24.91a76.382,76.382,0,0,1-7.807,19.925s17.774-22.061,47.661-16.368-12.1,28.462-29.179,30.6c0,0,48.122,4.646,23.928,25.278-17.434,14.874-36.027,7.458-52.912,9.334C93.514,181.468,79,194.06,79,194.06l-5-.354-2.337-3.468-6.294-1.117a1.041,1.041,0,0,1-.517-.242l-3.808-3.3a1.075,1.075,0,0,0-.745-.261Z" transform="translate(29.711 -0.001)"/></g></g></g></g></g></svg>