<svg xmlns="http://www.w3.org/2000/svg" xmlns:xlink="http://www.w3.org/1999/xlink" width="102.533" height="78.403" viewBox="0 0 102.533 78.403"><defs><style>.a{fill:#fff;stroke:rgba(0,0,0,0);stroke-miterlimit:10;}.b{fill:none;}.c{clip-path:url(#a);}.d{fill:#4fb104;}.e{fill:#1d5826;}.f{clip-path:url(#b);}.g{fill:#dd1d3e;}.h{fill:#62bc47;}.i{fill:#f5b71a;}.j{fill:#fde3a0;}.k{fill:#009444;}.l{fill:#7dc800;}.m{fill:#e6352b;}</style><clipPath id="a"><path class="a" d="M-6982-841l102.533,29.154-26.672,18.4L-6982-841l65.375,53.221,5.828,16.154-11.821-11.517-26.553,20.545Z" transform="translate(7942 1035)"/></clipPath><clipPath id="b"><rect class="b" width="60.366" height="89.422"/></clipPath></defs><g class="c" transform="translate(-960 -194)"><g transform="translate(894.288 121.515)"><g transform="translate(101.994 59.543)"><path class="d" d="M307.555,372.421c.086,1,.805,1.848.923,2.84a5.107,5.107,0,0,1-.439,2.257c-2.668,7.611-3.635,16.069-1.136,23.735s8.917,14.319,16.871,15.647c3.246.54,6.73.245,9.654,1.755,1.332.687,2.475,1.721,3.858,2.3s3.209.556,4.141-.619a6.085,6.085,0,0,0,.839-2.955,27.933,27.933,0,0,1,2.451-6.779c2.264-5.2,3.708-10.872,3.195-16.515a25.09,25.09,0,0,0-9.584-17.4c-4.658-3.573-10.382-5.3-16.134-6.074-2.544-.34-15.014-2.5-14.638,1.813" transform="translate(-305.456 -369.766)"/><path class="e" d="M363.854,387.416a1.071,1.071,0,0,0,.532.1.759.759,0,0,0,.57-.723,2.022,2.022,0,0,0-.253-.951c-.441-.947-1.522-1.05-2.476-1.093a1.044,1.044,0,0,0-.571.088.764.764,0,0,0-.256.938,1.79,1.79,0,0,0,.71.767,8.3,8.3,0,0,0,1.744.876" transform="translate(-343.201 -374.53)"/><path class="e" d="M345.738,377.466a2.072,2.072,0,0,0-1.368.328.413.413,0,0,0-.181.227.432.432,0,0,0,.151.362,3.047,3.047,0,0,0,1.484.818,1.354,1.354,0,0,0,1.188-.107c1.145-.915-.631-1.578-1.274-1.628" transform="translate(-333.105 -370.243)"/><path class="e" d="M351.887,385.833a1.064,1.064,0,0,0-1.095.311.724.724,0,0,0,0,.7,1.314,1.314,0,0,0,.515.507,1.347,1.347,0,0,0,1.082.187,1.033,1.033,0,0,0,.656-1.076c-.121-.5-.7-.559-1.159-.629" transform="translate(-336.941 -375.157)"/><path class="e" d="M380.356,398.127a1.6,1.6,0,0,0-2.387-.754,1.477,1.477,0,0,0-.663,1.179,2.346,2.346,0,0,0,.377,1.333,2.256,2.256,0,0,0,.926.891,1.379,1.379,0,0,0,1.251-.005,1.526,1.526,0,0,0,.689-1.213,4.379,4.379,0,0,0-.193-1.43" transform="translate(-352.595 -381.815)"/><path class="e" d="M363.581,399.528c0-.073-.053-.146-.174-.209-.706-.362-2.006-.837-2.77-.382-1.04.621.929,1.229,1.315,1.375.491.188,1.964.932,2.193.012.085-.338-.186-.6-.564-.8" transform="translate(-342.612 -382.773)"/><path class="e" d="M376.353,411.083l-.136-.1a.381.381,0,0,0-.126-.056.7.7,0,0,1-.093-.095c-.134-.172-.438-.15-.624-.1-.121.036-.43.191-.294.364a1.277,1.277,0,0,0,.552.4.782.782,0,0,0,.642-.07c.132-.083.239-.228.078-.35" transform="translate(-351.268 -389.802)"/><path class="e" d="M350.733,396.293c.023-.042.015-.083-.069-.11a1.747,1.747,0,0,0-1.075.03c-.063.018-.3.132-.2.229a1.259,1.259,0,0,0,1.046.3c.123-.019.519-.095.5-.3-.009-.094-.1-.136-.2-.154" transform="translate(-336.155 -381.22)"/><path class="e" d="M325.847,375.327a.515.515,0,0,0-.016-.05c-.1-.25-.414-.288-.652-.254a1.571,1.571,0,0,0-.949.176c-.191.106-.316.319-.04.421a5.911,5.911,0,0,0,.53.265,1.145,1.145,0,0,0,.9-.106.421.421,0,0,0,.233-.428.209.209,0,0,0-.006-.024" transform="translate(-321.245 -368.803)"/><path class="e" d="M335.106,381.5c-.045-.031-.091-.065-.136-.1a.709.709,0,0,1-.148-.073,1.345,1.345,0,0,0-1.122.118c-.078.043-.163.152-.094.238a1.188,1.188,0,0,0,1.463.1c.123-.073.161-.2.037-.285" transform="translate(-326.866 -372.476)"/><path class="e" d="M328.482,395.283c-.005-.13-.141-.228-.28-.264a2.141,2.141,0,0,0-.889-.039.569.569,0,0,0-.4.215.231.231,0,0,0,.046.318,1.555,1.555,0,0,0,1.127.259c.181-.025.473-.155.441-.382a.234.234,0,0,0-.047-.106" transform="translate(-322.918 -380.537)"/></g><g transform="translate(31.057 104.064) rotate(-76)"><g class="f" transform="translate(0 0)"><path class="g" d="M5.837,33.227S-11.654,1.923,13.919.1C39.373-1.721,45.03,22.52,38.161,29.793s-19.6,10.495-19.6,10.495-9.293-7.464-12.728-7.06" transform="translate(0 49.136)"/><path class="h" d="M13.48,52.667s4.288-10.709-3.513-14.747S-1.471,35.294.551,29.636s10.505,1.616,10.505,1.616-3.435-10.1,1.413-11.92,6.061,8.89,6.061,8.89,1.618-18.99,7.072-20.2,1.212,11.112,1.212,11.112S33.389-5.021,47.42.949c9.494,4.04-14.749,22.626-14.749,22.626s7.476-1.616,7.072,1.01-7.274,7.072-7.274,7.072a21.684,21.684,0,0,1-2.216,5.656,14.539,14.539,0,0,1,13.53-4.647c8.486,1.616-3.435,8.08-8.284,8.687,0,0,13.661,1.319,6.793,7.176-4.949,4.222-10.228,2.117-15.021,2.65-3.032.337-7.151,3.912-7.151,3.912l-1.419-.1-.663-.985-1.787-.317a.3.3,0,0,1-.147-.069l-1.081-.937a.305.305,0,0,0-.211-.074Z" transform="translate(10.742 0)"/></g></g><g transform="matrix(0.966, 0.259, -0.259, 0.966, 65.789, 90.687)"><path class="i" d="M47.725,4.393S28.446-3.439,8.306,1.812,9.425,27.773,21.819,32.436a190.387,190.387,0,0,0,19.021,6.3l22.636-4.218V18.337Z" transform="translate(0 2.784)"/><path class="j" d="M5.852,2.926A2.926,2.926,0,1,1,2.926,0,2.926,2.926,0,0,1,5.852,2.926" transform="translate(6.671 10.104)"/><path class="j" d="M5.853,2.926A2.926,2.926,0,1,1,2.926,0,2.927,2.927,0,0,1,5.853,2.926" transform="translate(11.147 21.12)"/><path class="j" d="M5.853,2.926A2.926,2.926,0,1,1,2.926,0,2.927,2.927,0,0,1,5.853,2.926" transform="translate(14.073 12.686)"/><path class="j" d="M5.853,2.926A2.926,2.926,0,1,1,2.926,0,2.927,2.927,0,0,1,5.853,2.926" transform="translate(18.118 4.251)"/><path class="j" d="M5.853,2.926A2.926,2.926,0,1,1,2.926,0,2.927,2.927,0,0,1,5.853,2.926" transform="translate(18.892 23.445)"/><path class="j" d="M5.853,2.926A2.926,2.926,0,1,1,2.926,0,2.927,2.927,0,0,1,5.853,2.926" transform="translate(21.819 15.01)"/><path class="j" d="M5.853,2.926A2.927,2.927,0,1,1,2.926,0,2.927,2.927,0,0,1,5.853,2.926" transform="translate(25.864 6.575)"/><path class="j" d="M5.853,2.926A2.926,2.926,0,1,1,2.926,0,2.927,2.927,0,0,1,5.853,2.926" transform="translate(26.403 26.629)"/><path class="j" d="M5.853,2.926A2.926,2.926,0,1,1,2.926,0,2.927,2.927,0,0,1,5.853,2.926" transform="translate(29.329 18.194)"/><path class="j" d="M5.853,2.926A2.926,2.926,0,1,1,2.926,0,2.927,2.927,0,0,1,5.853,2.926" transform="translate(33.375 9.759)"/><path class="j" d="M5.853,2.927A2.926,2.926,0,1,1,2.926,0,2.927,2.927,0,0,1,5.853,2.927" transform="translate(34.306 29.367)"/><path class="j" d="M5.853,2.926A2.926,2.926,0,1,1,2.926,0,2.927,2.927,0,0,1,5.853,2.926" transform="translate(37.232 20.933)"/><path class="j" d="M5.853,2.926A2.926,2.926,0,1,1,2.926,0,2.927,2.927,0,0,1,5.853,2.926" transform="translate(41.277 12.498)"/><path class="j" d="M5.853,2.926A2.926,2.926,0,1,1,2.926,0,2.926,2.926,0,0,1,5.853,2.926" transform="translate(41.591 31.879)"/><path class="j" d="M5.853,2.926A2.926,2.926,0,1,1,2.926,0,2.926,2.926,0,0,1,5.853,2.926" transform="translate(44.516 23.445)"/><path class="k" d="M23.258,28.867S13.447,18.642,14.307,0c0,0,16.525,8.211,26.939,12.945S52.833,27.4,52.559,33.084l2.458.688s2.84,1.033,1.291,5.423-6.2,2.324-6.2,2.324S46.5,54.946,22.484,51.072.02,48.146.02,48.146a51.862,51.862,0,0,1,23.238-19.28" transform="translate(32.815)"/></g><g transform="matrix(0.875, 0.485, -0.485, 0.875, 133.003, 74.346)"><path class="l" d="M0,22.049A45.261,45.261,0,0,0,5.624,8.97c.367-1.571,1.024-5.676,1.8-6.854,1.486-2.252,4.469-3.178,6.1-.387S11,6.037,15.4,10.024s5.306.6,7.529,4.487c1.95,3.413-11.232,7.418-11.232,7.418L3.609,23.714Z" transform="translate(11.85 0)"/><path class="m" d="M27.451,47.184h0a9.908,9.908,0,0,1-12.984-5.266L.743,14.476c-2.572-6.083,1.965-11.75,7-13.882C11.713-1.082,18.6.821,20.73,5.86L34.575,32.816c2.131,5.039.617,11.094-7.125,14.368" transform="translate(0 20.215)"/><path class="m" d="M25.622,47.684h0A9.907,9.907,0,0,0,30.888,34.7L20.757,5.739C18.185-.344,10.958-1.036,5.919,1.1,1.953,2.772-1.478,9.039.653,14.078l9.7,28.711c2.131,5.039,7.806,8.053,15.271,4.9" transform="translate(29.201 8.138)"/><path class="m" d="M31.018,47.036l-7.876,3.331a5.63,5.63,0,0,1-7.379-2.993L.446,11.156A5.63,5.63,0,0,1,3.439,3.777L11.315.446a5.632,5.632,0,0,1,7.38,2.994L34.011,39.656a5.631,5.631,0,0,1-2.993,7.38" transform="translate(14.471 12.734)"/></g></g></g></svg>