<svg xmlns="http://www.w3.org/2000/svg" width="18.276" height="16.666" viewBox="0 0 18.276 16.666"><defs><style>.a{fill:none;stroke:#fff;stroke-linecap:round;stroke-linejoin:round;}</style></defs><g transform="translate(0.5 0.5)"><path class="a" d="M13.571,30.785A.785.785,0,1,1,12.785,30,.785.785,0,0,1,13.571,30.785Z" transform="translate(-5.765 -15.904)"/><path class="a" d="M30.071,30.785A.785.785,0,1,1,29.285,30,.785.785,0,0,1,30.071,30.785Z" transform="translate(-15.103 -15.904)"/><path class="a" d="M1.5,1.5H4.641l2.1,10.515a1.571,1.571,0,0,0,1.571,1.264h7.633a1.571,1.571,0,0,0,1.571-1.264l1.256-6.589H5.426" transform="translate(-1.5 -1.5)"/></g></svg>