<svg xmlns="http://www.w3.org/2000/svg" width="21.952" height="20" viewBox="0 0 21.952 20"><defs><style>.a{fill:none;stroke:#298525;stroke-linecap:round;stroke-linejoin:round;}</style></defs><g transform="translate(0.5 0.5)"><path class="a" d="M13.9,30.952A.952.952,0,1,1,12.952,30,.952.952,0,0,1,13.9,30.952Z" transform="translate(-4.438 -12.905)"/><path class="a" d="M30.4,30.952A.952.952,0,1,1,29.452,30,.952.952,0,0,1,30.4,30.952Z" transform="translate(-12.252 -12.905)"/><path class="a" d="M1.5,1.5H5.31L7.862,14.252a1.9,1.9,0,0,0,1.9,1.533h9.257a1.9,1.9,0,0,0,1.9-1.533l1.524-7.99H6.262" transform="translate(-1.5 -1.5)"/></g></svg>