<svg xmlns="http://www.w3.org/2000/svg" width="129" height="129" viewBox="0 0 129 129"><defs><style>.a{fill:#298525;}.b{fill:#f2a133;}.c{fill:#fff;}.d{fill:#e8eae9;}.e{fill:#52b14d;}.f{fill:#f3f3f3;}</style></defs><g transform="translate(-129 -153)"><circle class="a" cx="64.5" cy="64.5" r="64.5" transform="translate(129 153)"/><g transform="translate(-577 3)"><rect class="b" width="49.519" height="36.813" transform="translate(745.681 201.2)"/><rect class="c" width="18.05" height="26.6" transform="translate(773.587 211.413)"/><path class="a" d="M0,102.4v5.344a5.627,5.627,0,0,0,5.7,5.7,5.627,5.627,0,0,0,5.7-5.7V102.4Z" transform="translate(742 95)"/><path class="d" d="M102.4,102.4v5.344a5.7,5.7,0,1,0,11.4,0V102.4Z" transform="translate(651 95)"/><path class="a" d="M204.8,102.4v5.344a5.7,5.7,0,1,0,11.4,0V102.4Z" transform="translate(560 95)"/><path class="d" d="M307.2,102.4v5.344a5.7,5.7,0,1,0,11.4,0V102.4Z" transform="translate(469 95)"/><path class="a" d="M409.6,102.4v5.344a5.7,5.7,0,1,0,11.4,0V102.4Z" transform="translate(378 95)"/><path class="e" d="M13.894,0H4.156L0,11.4H11.4Z" transform="translate(742 186)"/><path class="f" d="M114.631,0h-9.738L102.4,11.4h11.4Z" transform="translate(651 186)"/><path class="e" d="M215.369,0h-9.737L204.8,11.4h11.4Z" transform="translate(560 186)"/><path class="f" d="M309.471,0h-9.738l.831,11.4h11.4Z" transform="translate(475.636 186)"/><path class="e" d="M396.938,0H387.2l2.494,11.4h11.4Z" transform="translate(397.906 186)"/><rect class="d" width="57" height="4.987" transform="translate(742 238.012)"/><circle class="a" cx="1.544" cy="1.544" r="1.544" transform="translate(776.081 223.169)"/><rect class="c" width="20.069" height="18.05" transform="translate(749.244 211.413)"/></g></g></svg>