<svg xmlns="http://www.w3.org/2000/svg" width="18" height="17" viewBox="0 0 18 17"><defs><style>.a{fill:none;}.b{fill:#c6c6c6;fill-rule:evenodd;}</style></defs><g transform="translate(0.365 -0.042)"><rect class="a" width="18" height="17" transform="translate(-0.365 0.042)"/><path class="b" d="M43.123,15.121a9.352,9.352,0,0,0,9.436-9.436V5.235a7.305,7.305,0,0,0,1.618-1.708,7.46,7.46,0,0,1-1.887.539,3.5,3.5,0,0,0,1.438-1.8,8.243,8.243,0,0,1-2.067.809A3.21,3.21,0,0,0,49.234,2a3.376,3.376,0,0,0-3.325,3.325,1.752,1.752,0,0,0,.09.719,9.291,9.291,0,0,1-6.83-3.5,3.442,3.442,0,0,0-.449,1.708,3.571,3.571,0,0,0,1.438,2.786,3.03,3.03,0,0,1-1.528-.449h0a3.284,3.284,0,0,0,2.7,3.235,2.771,2.771,0,0,1-.9.09,1.529,1.529,0,0,1-.629-.09,3.4,3.4,0,0,0,3.145,2.337,6.785,6.785,0,0,1-4.134,1.438A2.488,2.488,0,0,1,38,13.5a8.483,8.483,0,0,0,5.123,1.618" transform="translate(-37.342 0.214)"/></g></svg>