<svg xmlns="http://www.w3.org/2000/svg" xmlns:xlink="http://www.w3.org/1999/xlink" width="261" height="319" viewBox="0 0 261 319"><defs><style>.a{fill:#f2a133;}.b{fill:none;}.c{clip-path:url(#a);}.d{clip-path:url(#b);}.e{fill:#d8d8d8;}.e,.f,.g{fill-rule:evenodd;}.f{fill:#fbfbfb;}.g{fill:#6d6d6d;}.h{fill:#fff;}.i{fill:#298525;}.j{fill:#3a9b31;}.k{fill:#085404;}.l{fill:#0f700a;}.m{fill:#52a84a;}.n{fill:url(#e);}.o{fill:url(#f);}</style><clipPath id="a"><rect class="a" width="261" height="319" transform="translate(174 1819)"/></clipPath><clipPath id="b"><rect class="b" width="238.856" height="381.847"/></clipPath><linearGradient id="e" x1="0.5" x2="0.5" y2="1" gradientUnits="objectBoundingBox"><stop offset="0" stop-color="#164d0c"/><stop offset="1" stop-color="#2b9a17"/></linearGradient><linearGradient id="f" x1="0.5" x2="0.5" y2="1" gradientUnits="objectBoundingBox"><stop offset="0" stop-color="#2b9a17"/><stop offset="1" stop-color="#085404"/></linearGradient></defs><g class="c" transform="translate(-174 -1819)"><g transform="translate(-485 -265)"><g class="d" transform="translate(669 2106)"><path class="e" d="M0,13.666A13.537,13.537,0,0,1,13.526.12C52.007.094,161.722.02,200.21,0a13.524,13.524,0,0,1,13.538,13.522c.037,59.25.2,295.411.239,354.658a13.536,13.536,0,0,1-13.528,13.546c-38.487.021-148.2.1-186.681.121A13.539,13.539,0,0,1,.231,368.318C.192,309.07.038,72.914,0,13.666"/><path class="f" d="M57.041,16.053A7.685,7.685,0,0,0,49.349,8.37l-28.807.014A13.543,13.543,0,0,0,7.014,21.931c.039,57.438.185,280.672.224,338.111A13.539,13.539,0,0,0,20.784,373.57l172.652-.113a13.535,13.535,0,0,0,13.528-13.547c-.04-57.439-.185-280.673-.224-338.111A13.539,13.539,0,0,0,193.194,8.27l-28.8.023a7.7,7.7,0,0,0-7.687,7.7,7.692,7.692,0,0,1-7.687,7.7c-18.571.016-65.7.047-84.279.056A7.7,7.7,0,0,1,57.041,16.053Z"/><path class="g" d="M84.05,14.685l45.652-.027,0,2.752-45.644.034Z"/><path class="g" d="M71.308,14.144a1.93,1.93,0,1,0,1.932,1.93,1.918,1.918,0,0,0-1.932-1.93"/><path class="a" d="M71.716,249.89l-.011.5a12.924,12.924,0,0,0,13.1,13.2l55-.761a12.922,12.922,0,0,0-.239-25.843l-54.994.259A12.922,12.922,0,0,0,71.716,249.89" transform="matrix(1, 0.017, -0.017, 1, 4.385, -1.919)"/><path class="h" d="M92.415,252.711l.286-.583a3.488,3.488,0,0,0,2.36.828c1.332-.02,1.9-.588,1.892-1.29-.03-1.951-4.392-.684-4.432-3.315-.015-1.047.783-1.964,2.592-1.992a4.023,4.023,0,0,1,2.215.6l-.245.6a3.668,3.668,0,0,0-1.96-.559c-1.3.02-1.872.607-1.86,1.318.029,1.951,4.391.706,4.431,3.3.015,1.047-.8,1.953-2.623,1.981a3.857,3.857,0,0,1-2.656-.885"/><path class="h" d="M98.938,246.443a.52.52,0,0,1,.521-.515.512.512,0,0,1,.536.489.529.529,0,0,1-1.057.026m.188,1.685.722-.012.081,5.345-.721.012Z"/><path class="h" d="M106.809,248.01l.072,4.7a2.344,2.344,0,0,1-2.632,2.712,3.715,3.715,0,0,1-2.5-.785l.358-.553a3.185,3.185,0,0,0,2.114.7c1.352-.021,1.962-.651,1.942-1.971l-.011-.682a2.4,2.4,0,0,1-2.066,1.069,2.593,2.593,0,1,1-.08-5.182,2.414,2.414,0,0,1,2.13,1.034l-.016-1.025Zm-.662,2.551a2.028,2.028,0,1,0-2,1.991,1.912,1.912,0,0,0,2-1.991"/><path class="h" d="M113.787,250.149l.047,3.1-.722.011-.046-3.028a1.492,1.492,0,0,0-1.631-1.682,1.752,1.752,0,0,0-1.84,1.958l.042,2.805-.722.011-.081-5.345.691-.011.015.986a2.247,2.247,0,0,1,2.017-1.056,2.046,2.046,0,0,1,2.23,2.251"/><path class="h" d="M118.5,250.14l-.062-4.074.752-.012.061,4.043c.026,1.688.831,2.448,2.213,2.427s2.172-.806,2.146-2.493l-.061-4.043.732-.011.062,4.074c.031,2.042-1.051,3.115-2.869,3.143s-2.943-1.012-2.974-3.054"/><path class="h" d="M131.886,250.3a2.59,2.59,0,0,1-2.621,2.765,2.336,2.336,0,0,1-2.049-1.026l.046,2.978-.722.011-.111-7.317.691-.01.016,1.056a2.331,2.331,0,0,1,2.046-1.128,2.586,2.586,0,0,1,2.7,2.671m-.722.012a1.994,1.994,0,1,0-1.959,2.113,1.968,1.968,0,0,0,1.959-2.113"/><path class="i" d="M170.123,33.623a1,1,0,0,1-.008-2l16.713-.129h.007a1,1,0,0,1,.008,2l-16.712.129Z"/><path class="i" d="M170.259,40.093a1,1,0,0,1-.008-2l16.713-.129h.007a1,1,0,0,1,.008,2l-16.712.129Z"/><path class="i" d="M170.3,46.547a1,1,0,0,1-.008-2l16.713-.128h.007a1,1,0,0,1,.008,2l-16.712.129Z"/><path class="j" d="M237.478,157.877v54.782H65.03l-.042-54.913Z"/></g><g class="d" transform="translate(669 2106)"><path class="k" d="M22.071,129.845l-.147-61.818H196.8l.006,61.841Z"/></g><g class="d" transform="translate(669 2106)"><path class="l" d="M75.9,117h0A10.873,10.873,0,0,1,65.03,106.132V97.641H86.776v8.491A10.873,10.873,0,0,1,75.9,117"/><path class="m" d="M97.649,117h0a10.873,10.873,0,0,1-10.873-10.873V97.641h21.746v8.491A10.873,10.873,0,0,1,97.649,117"/><path class="l" d="M119.254,117h0a10.873,10.873,0,0,1-10.873-10.873V97.641h21.746v8.491A10.873,10.873,0,0,1,119.254,117"/><path class="m" d="M141,117h0a10.873,10.873,0,0,1-10.873-10.873V97.641h21.746v8.491A10.873,10.873,0,0,1,141,117"/><path class="l" d="M162.746,117h0a10.873,10.873,0,0,1-10.873-10.873V97.641h21.746v8.491A10.873,10.873,0,0,1,162.746,117"/><path class="m" d="M184.492,117h0a10.873,10.873,0,0,1-10.873-10.873V97.641h21.746v8.491A10.873,10.873,0,0,1,184.492,117"/><path class="l" d="M206.238,117h0a10.873,10.873,0,0,1-10.873-10.873V97.641h21.746v8.491A10.873,10.873,0,0,1,206.238,117"/><path class="m" d="M227.984,117h0a10.873,10.873,0,0,1-10.873-10.873V97.641h21.746v8.491A10.873,10.873,0,0,1,227.984,117"/><path class="i" d="M21.924,68.2,65.679,97.64H238.856l-41.6-29.613Z"/></g><path class="n" d="M906.479,2263.883l-172.495.008L691.209,2235.5l174.431.138Z"/><path class="o" d="M734.03,2263.883v54.459l-42.906-26.824-.052-56.253Z"/></g></g></svg>